<svg xmlns="http://www.w3.org/2000/svg" xmlns:xlink="http://www.w3.org/1999/xlink" width="92" zoomAndPan="magnify" viewBox="0 0 69 74.999997" height="100" preserveAspectRatio="xMidYMid meet" version="1.0"><path fill="#ff0000" d="M 11.28125 -0.00390625 C 11.210938 -0.00390625 11.136719 -0.00390625 11.066406 0 C 8.222656 0.0546875 5.410156 1.238281 3.355469 3.246094 C 1.191406 5.355469 0.00390625 8.203125 0.00390625 11.265625 L 0.00390625 63.726562 C 0.00390625 66.828125 1.21875 69.703125 3.429688 71.820312 C 5.535156 73.839844 8.394531 75 11.273438 75 C 13.214844 75 15.078125 74.5 16.816406 73.511719 L 20.746094 71.28125 C 19.746094 70.5625 19.09375 69.390625 19.09375 68.066406 L 19.09375 12.078125 C 19.09375 9.484375 19.09375 5.472656 21.3125 4.039062 L 16.816406 1.484375 C 15.082031 0.496094 13.21875 -0.00390625 11.28125 -0.00390625 Z M 11.28125 -0.00390625 " fill-opacity="1" fill-rule="nonzero"/><path fill="#f65555" d="M 49.585938 49.480469 C 50.496094 52.347656 52.152344 52.347656 52.699219 52.347656 C 53.886719 52.347656 55.058594 51.78125 55.652344 51.445312 L 62.980469 47.28125 C 66.546875 45.253906 68.675781 41.597656 68.675781 37.496094 C 68.675781 33.394531 66.546875 29.738281 62.980469 27.714844 L 49.585938 20.105469 Z M 49.585938 49.480469 " fill-opacity="1" fill-rule="nonzero"/><path fill="#ff4343" d="M 23.273438 5.796875 C 22.675781 5.796875 22.265625 5.972656 21.925781 6.875 C 21.554688 7.867188 21.382812 9.523438 21.382812 12.078125 L 21.382812 29.628906 L 30.484375 60.269531 C 31.382812 63.207031 33.042969 63.207031 33.589844 63.207031 C 34.773438 63.207031 35.957031 62.636719 36.558594 62.292969 L 47.875 55.863281 L 50.710938 54.25 C 49.46875 53.730469 48.136719 52.570312 47.371094 50.074219 C 47.363281 50.050781 47.355469 50.027344 47.351562 50.003906 L 47.292969 49.84375 L 47.292969 49.816406 L 36.203125 12.5 L 25.105469 6.195312 C 24.363281 5.929688 23.746094 5.796875 23.273438 5.796875 Z M 23.273438 5.796875 " fill-opacity="1" fill-rule="nonzero"/></svg>