<svg xmlns="http://www.w3.org/2000/svg" xmlns:xlink="http://www.w3.org/1999/xlink" width="326" zoomAndPan="magnify" viewBox="0 0 244.5 143.999998" height="192" preserveAspectRatio="xMidYMid meet" version="1.0"><defs><g/><clipPath id="17187e5521"><path d="M 76.324219 0.523438 L 105 0.523438 L 105 99.871094 L 76.324219 99.871094 Z M 76.324219 0.523438 " clip-rule="nonzero"/></clipPath><clipPath id="4f51bee317"><path d="M 142 27 L 167.636719 27 L 167.636719 70 L 142 70 Z M 142 27 " clip-rule="nonzero"/></clipPath></defs><g clip-path="url(#17187e5521)"><path fill="#ff0000" d="M 91.332031 0.320312 C 91.234375 0.320312 91.136719 0.324219 91.039062 0.324219 C 87.257812 0.398438 83.523438 1.972656 80.785156 4.644531 C 77.910156 7.449219 76.328125 11.238281 76.328125 15.308594 L 76.328125 85.078125 C 76.328125 89.203125 77.945312 93.027344 80.886719 95.84375 C 83.6875 98.53125 87.488281 100.070312 91.320312 100.070312 C 93.898438 100.070312 96.378906 99.40625 98.691406 98.09375 L 103.914062 95.125 C 102.585938 94.167969 101.714844 92.609375 101.714844 90.851562 L 101.714844 16.390625 C 101.714844 12.9375 101.714844 7.601562 104.667969 5.695312 L 98.6875 2.296875 C 96.382812 0.988281 93.90625 0.320312 91.332031 0.320312 Z M 91.332031 0.320312 " fill-opacity="1" fill-rule="nonzero"/></g><g clip-path="url(#4f51bee317)"><path fill="#f65555" d="M 142.269531 66.132812 C 143.480469 69.945312 145.683594 69.945312 146.410156 69.945312 C 147.988281 69.945312 149.546875 69.195312 150.335938 68.746094 L 160.085938 63.207031 C 164.828125 60.511719 167.660156 55.648438 167.660156 50.195312 C 167.660156 44.742188 164.828125 39.878906 160.085938 37.1875 L 142.269531 27.0625 Z M 142.269531 66.132812 " fill-opacity="1" fill-rule="nonzero"/></g><path fill="#ff4343" d="M 107.277344 8.035156 C 106.484375 8.035156 105.933594 8.269531 105.484375 9.46875 C 104.992188 10.792969 104.761719 12.992188 104.761719 16.390625 L 104.761719 39.734375 L 116.871094 80.480469 C 118.0625 84.390625 120.273438 84.390625 121 84.390625 C 122.570312 84.390625 124.148438 83.625 124.945312 83.171875 L 139.996094 74.621094 L 143.769531 72.476562 C 142.113281 71.785156 140.347656 70.242188 139.328125 66.921875 C 139.316406 66.894531 139.308594 66.863281 139.296875 66.828125 L 139.226562 66.613281 L 139.226562 66.582031 L 124.472656 16.949219 L 109.714844 8.566406 C 108.726562 8.214844 107.90625 8.035156 107.277344 8.035156 Z M 107.277344 8.035156 " fill-opacity="1" fill-rule="nonzero"/><g fill="#ffffff" fill-opacity="1"><g transform="translate(36.256173, 129.290752)"><g><path d="M 8.328125 0.3125 C 6.859375 0.3125 5.4375 0.113281 4.0625 -0.28125 C 2.6875 -0.675781 1.582031 -1.195312 0.75 -1.84375 L 2.203125 -5.078125 C 3.003906 -4.492188 3.953125 -4.023438 5.046875 -3.671875 C 6.148438 -3.316406 7.253906 -3.140625 8.359375 -3.140625 C 9.578125 -3.140625 10.476562 -3.320312 11.0625 -3.6875 C 11.65625 -4.050781 11.953125 -4.535156 11.953125 -5.140625 C 11.953125 -5.578125 11.773438 -5.941406 11.421875 -6.234375 C 11.078125 -6.523438 10.632812 -6.757812 10.09375 -6.9375 C 9.550781 -7.125 8.820312 -7.320312 7.90625 -7.53125 C 6.488281 -7.863281 5.328125 -8.195312 4.421875 -8.53125 C 3.515625 -8.875 2.738281 -9.414062 2.09375 -10.15625 C 1.445312 -10.90625 1.125 -11.898438 1.125 -13.140625 C 1.125 -14.222656 1.414062 -15.203125 2 -16.078125 C 2.582031 -16.960938 3.460938 -17.660156 4.640625 -18.171875 C 5.816406 -18.691406 7.257812 -18.953125 8.96875 -18.953125 C 10.15625 -18.953125 11.316406 -18.804688 12.453125 -18.515625 C 13.585938 -18.234375 14.582031 -17.828125 15.4375 -17.296875 L 14.109375 -14.015625 C 12.378906 -14.992188 10.65625 -15.484375 8.9375 -15.484375 C 7.726562 -15.484375 6.835938 -15.285156 6.265625 -14.890625 C 5.691406 -14.503906 5.40625 -13.992188 5.40625 -13.359375 C 5.40625 -12.722656 5.734375 -12.25 6.390625 -11.9375 C 7.054688 -11.625 8.078125 -11.316406 9.453125 -11.015625 C 10.867188 -10.679688 12.03125 -10.34375 12.9375 -10 C 13.84375 -9.664062 14.617188 -9.132812 15.265625 -8.40625 C 15.910156 -7.675781 16.234375 -6.691406 16.234375 -5.453125 C 16.234375 -4.390625 15.9375 -3.414062 15.34375 -2.53125 C 14.75 -1.65625 13.859375 -0.960938 12.671875 -0.453125 C 11.484375 0.0546875 10.035156 0.3125 8.328125 0.3125 Z M 8.328125 0.3125 "/></g></g></g><g fill="#ffffff" fill-opacity="1"><g transform="translate(53.230596, 129.290752)"><g><path d="M 11.15625 -0.6875 C 10.738281 -0.382812 10.234375 -0.15625 9.640625 0 C 9.046875 0.144531 8.421875 0.21875 7.765625 0.21875 C 6.066406 0.21875 4.75 -0.210938 3.8125 -1.078125 C 2.882812 -1.953125 2.421875 -3.234375 2.421875 -4.921875 L 2.421875 -10.796875 L 0.21875 -10.796875 L 0.21875 -14 L 2.421875 -14 L 2.421875 -17.484375 L 6.578125 -17.484375 L 6.578125 -14 L 10.140625 -14 L 10.140625 -10.796875 L 6.578125 -10.796875 L 6.578125 -4.96875 C 6.578125 -4.375 6.726562 -3.910156 7.03125 -3.578125 C 7.34375 -3.253906 7.785156 -3.09375 8.359375 -3.09375 C 9.015625 -3.09375 9.570312 -3.269531 10.03125 -3.625 Z M 11.15625 -0.6875 "/></g></g></g><g fill="#ffffff" fill-opacity="1"><g transform="translate(64.804061, 129.290752)"><g><path d="M 5.875 -12.421875 C 6.375 -13.117188 7.046875 -13.644531 7.890625 -14 C 8.734375 -14.351562 9.703125 -14.53125 10.796875 -14.53125 L 10.796875 -10.703125 C 10.335938 -10.734375 10.03125 -10.75 9.875 -10.75 C 8.6875 -10.75 7.753906 -10.414062 7.078125 -9.75 C 6.398438 -9.082031 6.0625 -8.085938 6.0625 -6.765625 L 6.0625 0 L 1.921875 0 L 1.921875 -14.3125 L 5.875 -14.3125 Z M 5.875 -12.421875 "/></g></g></g><g fill="#ffffff" fill-opacity="1"><g transform="translate(76.271108, 129.290752)"><g><path d="M 15.9375 -7.109375 C 15.9375 -7.054688 15.910156 -6.679688 15.859375 -5.984375 L 5.03125 -5.984375 C 5.226562 -5.097656 5.6875 -4.394531 6.40625 -3.875 C 7.132812 -3.363281 8.039062 -3.109375 9.125 -3.109375 C 9.875 -3.109375 10.535156 -3.21875 11.109375 -3.4375 C 11.679688 -3.664062 12.21875 -4.019531 12.71875 -4.5 L 14.921875 -2.109375 C 13.578125 -0.554688 11.609375 0.21875 9.015625 0.21875 C 7.398438 0.21875 5.972656 -0.09375 4.734375 -0.71875 C 3.492188 -1.351562 2.535156 -2.226562 1.859375 -3.34375 C 1.179688 -4.46875 0.84375 -5.738281 0.84375 -7.15625 C 0.84375 -8.5625 1.175781 -9.828125 1.84375 -10.953125 C 2.507812 -12.078125 3.421875 -12.953125 4.578125 -13.578125 C 5.742188 -14.210938 7.046875 -14.53125 8.484375 -14.53125 C 9.890625 -14.53125 11.160156 -14.226562 12.296875 -13.625 C 13.429688 -13.019531 14.320312 -12.15625 14.96875 -11.03125 C 15.613281 -9.90625 15.9375 -8.597656 15.9375 -7.109375 Z M 8.515625 -11.390625 C 7.578125 -11.390625 6.785156 -11.125 6.140625 -10.59375 C 5.503906 -10.0625 5.113281 -9.332031 4.96875 -8.40625 L 12.03125 -8.40625 C 11.882812 -9.3125 11.492188 -10.035156 10.859375 -10.578125 C 10.222656 -11.117188 9.441406 -11.390625 8.515625 -11.390625 Z M 8.515625 -11.390625 "/></g></g></g><g fill="#ffffff" fill-opacity="1"><g transform="translate(93.059293, 129.290752)"><g><path d="M 7.6875 -14.53125 C 9.90625 -14.53125 11.609375 -14 12.796875 -12.9375 C 13.984375 -11.882812 14.578125 -10.296875 14.578125 -8.171875 L 14.578125 0 L 10.703125 0 L 10.703125 -1.78125 C 9.921875 -0.445312 8.460938 0.21875 6.328125 0.21875 C 5.234375 0.21875 4.28125 0.03125 3.46875 -0.34375 C 2.664062 -0.71875 2.050781 -1.234375 1.625 -1.890625 C 1.195312 -2.546875 0.984375 -3.289062 0.984375 -4.125 C 0.984375 -5.457031 1.484375 -6.503906 2.484375 -7.265625 C 3.484375 -8.023438 5.03125 -8.40625 7.125 -8.40625 L 10.4375 -8.40625 C 10.4375 -9.3125 10.160156 -10.007812 9.609375 -10.5 C 9.054688 -10.988281 8.226562 -11.234375 7.125 -11.234375 C 6.363281 -11.234375 5.613281 -11.113281 4.875 -10.875 C 4.144531 -10.632812 3.519531 -10.3125 3 -9.90625 L 1.515625 -12.796875 C 2.296875 -13.347656 3.226562 -13.773438 4.3125 -14.078125 C 5.40625 -14.378906 6.53125 -14.53125 7.6875 -14.53125 Z M 7.375 -2.578125 C 8.082031 -2.578125 8.707031 -2.738281 9.25 -3.0625 C 9.800781 -3.394531 10.195312 -3.882812 10.4375 -4.53125 L 10.4375 -5.984375 L 7.578125 -5.984375 C 5.878906 -5.984375 5.03125 -5.425781 5.03125 -4.3125 C 5.03125 -3.78125 5.238281 -3.359375 5.65625 -3.046875 C 6.070312 -2.734375 6.644531 -2.578125 7.375 -2.578125 Z M 7.375 -2.578125 "/></g></g></g><g fill="#ffffff" fill-opacity="1"><g transform="translate(109.474991, 129.290752)"><g><path d="M 20.25 -14.53125 C 22.039062 -14.53125 23.460938 -14 24.515625 -12.9375 C 25.578125 -11.882812 26.109375 -10.304688 26.109375 -8.203125 L 26.109375 0 L 21.953125 0 L 21.953125 -7.5625 C 21.953125 -8.695312 21.71875 -9.539062 21.25 -10.09375 C 20.78125 -10.65625 20.109375 -10.9375 19.234375 -10.9375 C 18.265625 -10.9375 17.492188 -10.617188 16.921875 -9.984375 C 16.359375 -9.359375 16.078125 -8.425781 16.078125 -7.1875 L 16.078125 0 L 11.921875 0 L 11.921875 -7.5625 C 11.921875 -9.8125 11.015625 -10.9375 9.203125 -10.9375 C 8.242188 -10.9375 7.476562 -10.617188 6.90625 -9.984375 C 6.34375 -9.359375 6.0625 -8.425781 6.0625 -7.1875 L 6.0625 0 L 1.921875 0 L 1.921875 -14.3125 L 5.875 -14.3125 L 5.875 -12.671875 C 6.40625 -13.273438 7.054688 -13.734375 7.828125 -14.046875 C 8.609375 -14.367188 9.457031 -14.53125 10.375 -14.53125 C 11.382812 -14.53125 12.296875 -14.328125 13.109375 -13.921875 C 13.929688 -13.523438 14.59375 -12.945312 15.09375 -12.1875 C 15.675781 -12.9375 16.414062 -13.515625 17.3125 -13.921875 C 18.207031 -14.328125 19.1875 -14.53125 20.25 -14.53125 Z M 20.25 -14.53125 "/></g></g></g><g fill="#ffffff" fill-opacity="1"><g transform="translate(137.384346, 129.290752)"><g/></g></g><g fill="#ffffff" fill-opacity="1"><g transform="translate(144.913752, 129.290752)"><g><path d="M 19.296875 -18.625 L 19.296875 0 L 14.984375 0 L 14.984375 -7.640625 L 6.515625 -7.640625 L 6.515625 0 L 2.203125 0 L 2.203125 -18.625 L 6.515625 -18.625 L 6.515625 -11.28125 L 14.984375 -11.28125 L 14.984375 -18.625 Z M 19.296875 -18.625 "/></g></g></g><g fill="#ffffff" fill-opacity="1"><g transform="translate(166.41114, 129.290752)"><g><path d="M 10.484375 0.3125 C 7.828125 0.3125 5.753906 -0.421875 4.265625 -1.890625 C 2.785156 -3.359375 2.046875 -5.460938 2.046875 -8.203125 L 2.046875 -18.625 L 6.359375 -18.625 L 6.359375 -8.359375 C 6.359375 -5.023438 7.742188 -3.359375 10.515625 -3.359375 C 11.859375 -3.359375 12.882812 -3.757812 13.59375 -4.5625 C 14.300781 -5.375 14.65625 -6.640625 14.65625 -8.359375 L 14.65625 -18.625 L 18.921875 -18.625 L 18.921875 -8.203125 C 18.921875 -5.460938 18.175781 -3.359375 16.6875 -1.890625 C 15.207031 -0.421875 13.140625 0.3125 10.484375 0.3125 Z M 10.484375 0.3125 "/></g></g></g><g fill="#ffffff" fill-opacity="1"><g transform="translate(187.376414, 129.290752)"><g><path d="M 15.890625 -9.6875 C 16.953125 -9.351562 17.785156 -8.789062 18.390625 -8 C 18.992188 -7.207031 19.296875 -6.234375 19.296875 -5.078125 C 19.296875 -3.453125 18.660156 -2.195312 17.390625 -1.3125 C 16.117188 -0.4375 14.269531 0 11.84375 0 L 2.203125 0 L 2.203125 -18.625 L 11.3125 -18.625 C 13.582031 -18.625 15.320312 -18.1875 16.53125 -17.3125 C 17.75 -16.445312 18.359375 -15.269531 18.359375 -13.78125 C 18.359375 -12.875 18.140625 -12.066406 17.703125 -11.359375 C 17.273438 -10.648438 16.671875 -10.09375 15.890625 -9.6875 Z M 6.5 -15.375 L 6.5 -10.984375 L 10.78125 -10.984375 C 11.84375 -10.984375 12.644531 -11.171875 13.1875 -11.546875 C 13.738281 -11.921875 14.015625 -12.472656 14.015625 -13.203125 C 14.015625 -13.929688 13.738281 -14.472656 13.1875 -14.828125 C 12.644531 -15.191406 11.84375 -15.375 10.78125 -15.375 Z M 11.515625 -3.25 C 12.648438 -3.25 13.503906 -3.429688 14.078125 -3.796875 C 14.660156 -4.171875 14.953125 -4.75 14.953125 -5.53125 C 14.953125 -7.070312 13.804688 -7.84375 11.515625 -7.84375 L 6.5 -7.84375 L 6.5 -3.25 Z M 11.515625 -3.25 "/></g></g></g></svg>