<svg xmlns="http://www.w3.org/2000/svg" xmlns:xlink="http://www.w3.org/1999/xlink" width="411" zoomAndPan="magnify" viewBox="0 0 308.25 100.499997" height="134" preserveAspectRatio="xMidYMid meet" version="1.0"><defs><g/><clipPath id="8dc104cd72"><path d="M 0.390625 0.390625 L 29 0.390625 L 29 99.449219 L 0.390625 99.449219 Z M 0.390625 0.390625 " clip-rule="nonzero"/></clipPath><clipPath id="0b0c90ffc4"><path d="M 66 26 L 91.4375 26 L 91.4375 70 L 66 70 Z M 66 26 " clip-rule="nonzero"/></clipPath></defs><g clip-path="url(#8dc104cd72)"><path fill="#ff0000" d="M 15.351562 0.1875 C 15.257812 0.1875 15.160156 0.191406 15.0625 0.191406 C 11.292969 0.265625 7.566406 1.835938 4.839844 4.5 C 1.972656 7.296875 0.394531 11.074219 0.394531 15.132812 L 0.394531 84.699219 C 0.394531 88.8125 2.007812 92.625 4.9375 95.433594 C 7.730469 98.113281 11.523438 99.648438 15.339844 99.648438 C 17.914062 99.648438 20.386719 98.984375 22.691406 97.675781 L 27.902344 94.714844 C 26.574219 93.761719 25.707031 92.207031 25.707031 90.453125 L 25.707031 16.210938 C 25.707031 12.769531 25.707031 7.449219 28.652344 5.546875 L 22.691406 2.160156 C 20.390625 0.851562 17.921875 0.1875 15.351562 0.1875 Z M 15.351562 0.1875 " fill-opacity="1" fill-rule="nonzero"/></g><g clip-path="url(#0b0c90ffc4)"><path fill="#f65555" d="M 66.144531 65.808594 C 67.351562 69.609375 69.546875 69.609375 70.273438 69.609375 C 71.847656 69.609375 73.402344 68.859375 74.1875 68.414062 L 83.90625 62.890625 C 88.636719 60.203125 91.457031 55.355469 91.457031 49.917969 C 91.457031 44.480469 88.636719 39.628906 83.90625 36.945312 L 66.144531 26.851562 Z M 66.144531 65.808594 " fill-opacity="1" fill-rule="nonzero"/></g><path fill="#ff4343" d="M 31.253906 7.878906 C 30.460938 7.878906 29.914062 8.113281 29.46875 9.3125 C 28.976562 10.628906 28.746094 12.820312 28.746094 16.210938 L 28.746094 39.484375 L 40.816406 80.113281 C 42.007812 84.011719 44.210938 84.011719 44.933594 84.011719 C 46.503906 84.011719 48.074219 83.25 48.871094 82.796875 L 63.875 74.273438 L 67.640625 72.132812 C 65.988281 71.445312 64.226562 69.90625 63.210938 66.597656 C 63.199219 66.566406 63.191406 66.535156 63.179688 66.503906 L 63.105469 66.289062 L 63.105469 66.253906 L 48.398438 16.769531 L 33.683594 8.410156 C 32.695312 8.058594 31.878906 7.878906 31.253906 7.878906 Z M 31.253906 7.878906 " fill-opacity="1" fill-rule="nonzero"/><g fill="#ffffff" fill-opacity="1"><g transform="translate(99.650394, 59.251615)"><g><path d="M 8.296875 0.3125 C 6.835938 0.3125 5.421875 0.113281 4.046875 -0.28125 C 2.671875 -0.675781 1.570312 -1.191406 0.75 -1.828125 L 2.203125 -5.0625 C 2.992188 -4.476562 3.9375 -4.007812 5.03125 -3.65625 C 6.132812 -3.300781 7.234375 -3.125 8.328125 -3.125 C 9.546875 -3.125 10.445312 -3.304688 11.03125 -3.671875 C 11.613281 -4.035156 11.90625 -4.519531 11.90625 -5.125 C 11.90625 -5.5625 11.734375 -5.925781 11.390625 -6.21875 C 11.046875 -6.507812 10.601562 -6.742188 10.0625 -6.921875 C 9.53125 -7.097656 8.800781 -7.296875 7.875 -7.515625 C 6.457031 -7.847656 5.296875 -8.179688 4.390625 -8.515625 C 3.492188 -8.847656 2.722656 -9.382812 2.078125 -10.125 C 1.429688 -10.875 1.109375 -11.867188 1.109375 -13.109375 C 1.109375 -14.179688 1.398438 -15.15625 1.984375 -16.03125 C 2.566406 -16.90625 3.445312 -17.597656 4.625 -18.109375 C 5.800781 -18.628906 7.238281 -18.890625 8.9375 -18.890625 C 10.125 -18.890625 11.28125 -18.75 12.40625 -18.46875 C 13.539062 -18.1875 14.535156 -17.78125 15.390625 -17.25 L 14.0625 -13.984375 C 12.34375 -14.953125 10.628906 -15.4375 8.921875 -15.4375 C 7.710938 -15.4375 6.820312 -15.242188 6.25 -14.859375 C 5.675781 -14.472656 5.390625 -13.957031 5.390625 -13.3125 C 5.390625 -12.675781 5.71875 -12.203125 6.375 -11.890625 C 7.039062 -11.585938 8.054688 -11.285156 9.421875 -10.984375 C 10.835938 -10.648438 11.992188 -10.3125 12.890625 -9.96875 C 13.796875 -9.632812 14.570312 -9.101562 15.21875 -8.375 C 15.863281 -7.65625 16.1875 -6.675781 16.1875 -5.4375 C 16.1875 -4.375 15.890625 -3.40625 15.296875 -2.53125 C 14.703125 -1.65625 13.8125 -0.960938 12.625 -0.453125 C 11.4375 0.0546875 9.992188 0.3125 8.296875 0.3125 Z M 8.296875 0.3125 "/></g></g></g><g fill="#ffffff" fill-opacity="1"><g transform="translate(116.575325, 59.251615)"><g><path d="M 11.109375 -0.6875 C 10.703125 -0.382812 10.203125 -0.15625 9.609375 0 C 9.023438 0.144531 8.40625 0.21875 7.75 0.21875 C 6.050781 0.21875 4.738281 -0.210938 3.8125 -1.078125 C 2.882812 -1.953125 2.421875 -3.226562 2.421875 -4.90625 L 2.421875 -10.765625 L 0.21875 -10.765625 L 0.21875 -13.953125 L 2.421875 -13.953125 L 2.421875 -17.4375 L 6.546875 -17.4375 L 6.546875 -13.953125 L 10.109375 -13.953125 L 10.109375 -10.765625 L 6.546875 -10.765625 L 6.546875 -4.96875 C 6.546875 -4.363281 6.703125 -3.894531 7.015625 -3.5625 C 7.328125 -3.238281 7.765625 -3.078125 8.328125 -3.078125 C 8.984375 -3.078125 9.539062 -3.253906 10 -3.609375 Z M 11.109375 -0.6875 "/></g></g></g><g fill="#ffffff" fill-opacity="1"><g transform="translate(128.115047, 59.251615)"><g><path d="M 5.859375 -12.390625 C 6.359375 -13.078125 7.023438 -13.597656 7.859375 -13.953125 C 8.703125 -14.304688 9.671875 -14.484375 10.765625 -14.484375 L 10.765625 -10.671875 C 10.304688 -10.703125 10 -10.71875 9.84375 -10.71875 C 8.65625 -10.71875 7.722656 -10.382812 7.046875 -9.71875 C 6.378906 -9.0625 6.046875 -8.066406 6.046875 -6.734375 L 6.046875 0 L 1.90625 0 L 1.90625 -14.28125 L 5.859375 -14.28125 Z M 5.859375 -12.390625 "/></g></g></g><g fill="#ffffff" fill-opacity="1"><g transform="translate(139.54866, 59.251615)"><g><path d="M 15.890625 -7.078125 C 15.890625 -7.023438 15.863281 -6.65625 15.8125 -5.96875 L 5.015625 -5.96875 C 5.210938 -5.082031 5.671875 -4.382812 6.390625 -3.875 C 7.117188 -3.363281 8.019531 -3.109375 9.09375 -3.109375 C 9.84375 -3.109375 10.503906 -3.21875 11.078125 -3.4375 C 11.648438 -3.65625 12.1875 -4.003906 12.6875 -4.484375 L 14.890625 -2.09375 C 13.546875 -0.550781 11.582031 0.21875 9 0.21875 C 7.382812 0.21875 5.957031 -0.09375 4.71875 -0.71875 C 3.476562 -1.351562 2.519531 -2.226562 1.84375 -3.34375 C 1.175781 -4.457031 0.84375 -5.722656 0.84375 -7.140625 C 0.84375 -8.535156 1.175781 -9.796875 1.84375 -10.921875 C 2.507812 -12.046875 3.421875 -12.921875 4.578125 -13.546875 C 5.734375 -14.171875 7.03125 -14.484375 8.46875 -14.484375 C 9.863281 -14.484375 11.125 -14.179688 12.25 -13.578125 C 13.382812 -12.984375 14.273438 -12.125 14.921875 -11 C 15.566406 -9.875 15.890625 -8.566406 15.890625 -7.078125 Z M 8.484375 -11.359375 C 7.546875 -11.359375 6.757812 -11.09375 6.125 -10.5625 C 5.488281 -10.03125 5.101562 -9.304688 4.96875 -8.390625 L 11.984375 -8.390625 C 11.847656 -9.285156 11.460938 -10.003906 10.828125 -10.546875 C 10.191406 -11.085938 9.410156 -11.359375 8.484375 -11.359375 Z M 8.484375 -11.359375 "/></g></g></g><g fill="#ffffff" fill-opacity="1"><g transform="translate(156.287896, 59.251615)"><g><path d="M 7.671875 -14.484375 C 9.878906 -14.484375 11.578125 -13.957031 12.765625 -12.90625 C 13.953125 -11.851562 14.546875 -10.265625 14.546875 -8.140625 L 14.546875 0 L 10.671875 0 L 10.671875 -1.78125 C 9.890625 -0.445312 8.4375 0.21875 6.3125 0.21875 C 5.21875 0.21875 4.265625 0.03125 3.453125 -0.34375 C 2.648438 -0.71875 2.035156 -1.226562 1.609375 -1.875 C 1.191406 -2.53125 0.984375 -3.273438 0.984375 -4.109375 C 0.984375 -5.441406 1.484375 -6.488281 2.484375 -7.25 C 3.484375 -8.007812 5.023438 -8.390625 7.109375 -8.390625 L 10.40625 -8.390625 C 10.40625 -9.285156 10.128906 -9.976562 9.578125 -10.46875 C 9.023438 -10.957031 8.203125 -11.203125 7.109375 -11.203125 C 6.347656 -11.203125 5.597656 -11.082031 4.859375 -10.84375 C 4.128906 -10.601562 3.507812 -10.28125 3 -9.875 L 1.515625 -12.765625 C 2.285156 -13.304688 3.210938 -13.726562 4.296875 -14.03125 C 5.390625 -14.332031 6.515625 -14.484375 7.671875 -14.484375 Z M 7.34375 -2.578125 C 8.050781 -2.578125 8.679688 -2.738281 9.234375 -3.0625 C 9.785156 -3.394531 10.175781 -3.878906 10.40625 -4.515625 L 10.40625 -5.96875 L 7.5625 -5.96875 C 5.863281 -5.96875 5.015625 -5.410156 5.015625 -4.296875 C 5.015625 -3.765625 5.222656 -3.34375 5.640625 -3.03125 C 6.054688 -2.726562 6.625 -2.578125 7.34375 -2.578125 Z M 7.34375 -2.578125 "/></g></g></g><g fill="#ffffff" fill-opacity="1"><g transform="translate(172.655731, 59.251615)"><g><path d="M 20.1875 -14.484375 C 21.976562 -14.484375 23.398438 -13.957031 24.453125 -12.90625 C 25.503906 -11.851562 26.03125 -10.273438 26.03125 -8.171875 L 26.03125 0 L 21.890625 0 L 21.890625 -7.53125 C 21.890625 -8.664062 21.65625 -9.507812 21.1875 -10.0625 C 20.71875 -10.625 20.050781 -10.90625 19.1875 -10.90625 C 18.207031 -10.90625 17.4375 -10.585938 16.875 -9.953125 C 16.3125 -9.328125 16.03125 -8.394531 16.03125 -7.15625 L 16.03125 0 L 11.890625 0 L 11.890625 -7.53125 C 11.890625 -9.78125 10.988281 -10.90625 9.1875 -10.90625 C 8.226562 -10.90625 7.460938 -10.585938 6.890625 -9.953125 C 6.328125 -9.328125 6.046875 -8.394531 6.046875 -7.15625 L 6.046875 0 L 1.90625 0 L 1.90625 -14.28125 L 5.859375 -14.28125 L 5.859375 -12.625 C 6.390625 -13.226562 7.039062 -13.6875 7.8125 -14 C 8.582031 -14.320312 9.425781 -14.484375 10.34375 -14.484375 C 11.351562 -14.484375 12.265625 -14.285156 13.078125 -13.890625 C 13.890625 -13.492188 14.546875 -12.914062 15.046875 -12.15625 C 15.628906 -12.894531 16.363281 -13.46875 17.25 -13.875 C 18.144531 -14.28125 19.125 -14.484375 20.1875 -14.484375 Z M 20.1875 -14.484375 "/></g></g></g><g fill="#ffffff" fill-opacity="1"><g transform="translate(200.483712, 59.251615)"><g/></g></g><g fill="#ffffff" fill-opacity="1"><g transform="translate(207.991165, 59.251615)"><g><path d="M 19.234375 -18.578125 L 19.234375 0 L 14.9375 0 L 14.9375 -7.609375 L 6.5 -7.609375 L 6.5 0 L 2.203125 0 L 2.203125 -18.578125 L 6.5 -18.578125 L 6.5 -11.25 L 14.9375 -11.25 L 14.9375 -18.578125 Z M 19.234375 -18.578125 "/></g></g></g><g fill="#ffffff" fill-opacity="1"><g transform="translate(229.425874, 59.251615)"><g><path d="M 10.453125 0.3125 C 7.796875 0.3125 5.726562 -0.414062 4.25 -1.875 C 2.78125 -3.34375 2.046875 -5.441406 2.046875 -8.171875 L 2.046875 -18.578125 L 6.34375 -18.578125 L 6.34375 -8.328125 C 6.34375 -5.003906 7.722656 -3.34375 10.484375 -3.34375 C 11.828125 -3.34375 12.851562 -3.742188 13.5625 -4.546875 C 14.269531 -5.347656 14.625 -6.609375 14.625 -8.328125 L 14.625 -18.578125 L 18.859375 -18.578125 L 18.859375 -8.171875 C 18.859375 -5.441406 18.117188 -3.34375 16.640625 -1.875 C 15.171875 -0.414062 13.109375 0.3125 10.453125 0.3125 Z M 10.453125 0.3125 "/></g></g></g><g fill="#ffffff" fill-opacity="1"><g transform="translate(250.33002, 59.251615)"><g><path d="M 15.84375 -9.65625 C 16.90625 -9.320312 17.734375 -8.757812 18.328125 -7.96875 C 18.929688 -7.1875 19.234375 -6.21875 19.234375 -5.0625 C 19.234375 -3.4375 18.597656 -2.1875 17.328125 -1.3125 C 16.066406 -0.4375 14.226562 0 11.8125 0 L 2.203125 0 L 2.203125 -18.578125 L 11.28125 -18.578125 C 13.539062 -18.578125 15.273438 -18.140625 16.484375 -17.265625 C 17.703125 -16.398438 18.3125 -15.226562 18.3125 -13.75 C 18.3125 -12.84375 18.09375 -12.035156 17.65625 -11.328125 C 17.21875 -10.617188 16.613281 -10.0625 15.84375 -9.65625 Z M 6.46875 -15.328125 L 6.46875 -10.953125 L 10.75 -10.953125 C 11.8125 -10.953125 12.613281 -11.140625 13.15625 -11.515625 C 13.707031 -11.890625 13.984375 -12.4375 13.984375 -13.15625 C 13.984375 -13.882812 13.707031 -14.425781 13.15625 -14.78125 C 12.613281 -15.144531 11.8125 -15.328125 10.75 -15.328125 Z M 11.484375 -3.234375 C 12.617188 -3.234375 13.472656 -3.414062 14.046875 -3.78125 C 14.617188 -4.15625 14.90625 -4.734375 14.90625 -5.515625 C 14.90625 -7.054688 13.765625 -7.828125 11.484375 -7.828125 L 6.46875 -7.828125 L 6.46875 -3.234375 Z M 11.484375 -3.234375 "/></g></g></g></svg>